<svg width="120" height="120" viewBox="0 0 120 120" fill="none" xmlns="http://www.w3.org/2000/svg">
<path d="M74.9828 53.5306C70.9453 53.5306 67.0124 52.1078 63.9101 49.5242L62.3662 48.2357C61.9541 47.8915 61.3555 47.8915 60.9434 48.2357L59.3996 49.5231C56.2962 52.1077 52.3631 53.5305 48.3258 53.5305C47.7127 53.5305 47.2151 54.0281 47.2151 54.6412V62.4161C47.2151 71.6384 52.7154 79.8877 61.2268 83.4342C61.3635 83.492 61.5088 83.5197 61.6544 83.5197C61.7999 83.5197 61.9454 83.492 62.0819 83.4342C70.5934 79.8877 76.0936 71.6384 76.0936 62.4161V54.6412C76.0935 54.0282 75.5971 53.5306 74.9828 53.5306ZM73.8722 62.4163C73.8722 70.5822 69.0917 77.9052 61.6542 81.2007C54.2169 77.9053 49.4363 70.5834 49.4363 62.4163V55.7198C53.5981 55.481 57.6045 53.9082 60.8212 51.2292L61.6542 50.5351L62.4873 51.2304C65.704 53.9083 69.7102 55.4811 73.8722 55.7199V62.4163Z" fill="#003771"/>
<path d="M84.979 72.4123V90.1837C84.979 91.4088 83.9827 92.4052 82.7575 92.4052H40.5504C39.3253 92.4052 38.3289 91.4089 38.3289 90.1837V39.0908C38.3289 37.8657 39.3252 36.8693 40.5504 36.8693H57.2111V34.6479H40.5504C38.1001 34.6479 36.1075 36.6406 36.1075 39.0908V90.1837C36.1075 92.634 38.1002 94.6265 40.5504 94.6265H82.7577C85.208 94.6265 87.2005 92.6339 87.2005 90.1837V72.4123H84.979Z" fill="#003771"/>
<path d="M82.7579 34.6479H66.0972V36.8694H82.7579C83.983 36.8694 84.9794 37.8657 84.9794 39.0909V65.7481H87.2009V39.0909C87.2009 36.6406 85.2082 34.6479 82.7579 34.6479Z" fill="#003771"/>
<path d="M73.4953 37.5161L67.0875 34.9591L66.6288 32.2601C66.2523 29.7821 64.1597 27.9839 61.6539 27.9839C59.1482 27.9839 57.0556 29.7821 56.6824 32.2412L56.2203 34.9591L49.8103 37.5161C46.8814 38.6912 44.991 41.4902 44.9932 44.6457C44.9932 45.2587 45.4908 45.7553 46.1038 45.7553H77.2039C77.8169 45.7553 78.3145 45.2589 78.3157 44.6469C78.3181 41.4913 76.4276 38.6923 73.4953 37.5161ZM47.3257 43.534C47.6878 41.7623 48.9073 40.2718 50.6367 39.5776L57.6232 36.7896C57.9819 36.6463 58.2408 36.3265 58.3063 35.9443L58.8761 32.5933C59.0861 31.2093 60.2545 30.2052 61.6541 30.2052C63.0536 30.2052 64.222 31.2093 64.4352 32.6132L65.0017 35.9454C65.0661 36.3274 65.3261 36.6473 65.686 36.7907L72.6702 39.5774C74.3995 40.2716 75.6202 41.7622 75.9813 43.5338H47.3257V43.534Z" fill="#003771"/>
<path d="M81.6471 39.0908H76.0935V41.3123H80.5363V70.191H82.7578V40.2016C82.7578 39.5884 82.2614 39.0908 81.6471 39.0908Z" fill="#003771"/>
<path d="M80.5362 77.966V87.9624H42.7718V41.3123H48.5141V39.0908H41.6611C41.048 39.0908 40.5504 39.5884 40.5504 40.2015V89.0731C40.5504 89.6873 41.048 90.1838 41.6611 90.1838H81.6469C82.2611 90.1838 82.7576 89.6873 82.7576 89.0731V77.966H80.5362Z" fill="#003771"/>
<path d="M51.6575 47.9766H44.9932V50.198H51.6575V47.9766Z" fill="#003771"/>
<path d="M49.436 79.0767H44.9932V81.2981H49.436V79.0767Z" fill="#003771"/>
<path d="M51.6575 83.52H44.9932V85.7415H51.6575V83.52Z" fill="#003771"/>
<path d="M69.7101 60.5664L61.6063 69.6832L57.9966 66.0734L56.426 67.644L60.8688 72.0868C61.0766 72.2956 61.3598 72.4122 61.6541 72.4122C61.6652 72.4122 61.6764 72.4122 61.6863 72.4122C61.9928 72.4022 62.2805 72.2679 62.4838 72.039L71.3695 62.0426L69.7101 60.5664Z" fill="#003771"/>
<path d="M94.6504 63.8524L91.3182 60.5202C91.105 60.3081 90.8118 60.1959 90.5163 60.1948C90.2164 60.1982 89.931 60.3247 89.7254 60.5425L70.8432 80.5354C70.6489 80.742 70.5399 81.0152 70.5399 81.2984V84.6306C70.5399 85.2448 71.0364 85.7412 71.6506 85.7412H74.9827C75.2882 85.7412 75.5803 85.6158 75.7903 85.3936L94.6725 65.4007C95.0858 64.9631 95.0757 64.2777 94.6504 63.8524ZM74.5041 83.5199H72.7614V81.7394L90.5551 62.8995L92.3155 64.6599L74.5041 83.5199Z" fill="#003771"/>
<path d="M87.9856 63.8525L86.4148 65.4233L89.7472 68.7557L91.318 67.1849L87.9856 63.8525Z" fill="#003771"/>
<path d="M33.8862 27.9839H31.6647V36.8697H33.8862V27.9839Z" fill="#003771"/>
<path d="M37.2188 31.3159H28.333V33.5374H37.2188V31.3159Z" fill="#003771"/>
<circle opacity="0.2" cx="60" cy="60" r="59" stroke="#003B72" stroke-width="2"/>
</svg>
