<svg width="120" height="120" viewBox="0 0 120 120" fill="none" xmlns="http://www.w3.org/2000/svg">
<path d="M36.3029 77.5958C35.7497 77.5958 35.3012 78.0538 35.3012 78.6189C35.3012 79.2583 34.792 79.7784 34.166 79.7784C33.5401 79.7784 33.0308 79.2583 33.0308 78.6189C33.0308 77.9795 33.5401 77.4593 34.166 77.4593C34.7192 77.4593 35.1677 77.0013 35.1677 76.4362C35.1677 75.8712 34.7192 75.4131 34.166 75.4131C32.4354 75.4131 31.0275 76.8512 31.0275 78.6189C31.0275 80.3866 32.4354 81.8247 34.166 81.8247C35.8966 81.8247 37.3045 80.3866 37.3045 78.6189C37.3045 78.0538 36.8561 77.5958 36.3029 77.5958Z" fill="#003B72"/>
<path d="M76.9033 77.5958C76.3501 77.5958 75.9016 78.0538 75.9016 78.6189C75.9016 79.2583 75.3924 79.7784 74.7664 79.7784C74.1405 79.7784 73.6312 79.2583 73.6312 78.6189C73.6312 77.9795 74.1405 77.4593 74.7664 77.4593C75.3196 77.4593 75.7681 77.0013 75.7681 76.4362C75.7681 75.8712 75.3196 75.4131 74.7664 75.4131C73.0359 75.4131 71.6279 76.8512 71.6279 78.6189C71.6279 80.3866 73.0359 81.8247 74.7664 81.8247C76.497 81.8247 77.9049 80.3866 77.9049 78.6189C77.9049 78.0538 77.4565 77.5958 76.9033 77.5958Z" fill="#003B72"/>
<path d="M46.9872 77.5957C46.7241 77.5957 46.465 77.7048 46.2794 77.8958C46.0924 78.0854 45.9855 78.3501 45.9855 78.6188C45.9855 78.8876 46.0924 79.1522 46.2794 79.3418C46.465 79.5328 46.7241 79.642 46.9872 79.642C47.2503 79.642 47.5094 79.5328 47.695 79.3418C47.882 79.1522 47.9888 78.8876 47.9888 78.6188C47.9888 78.3501 47.882 78.0854 47.695 77.8958C47.5094 77.7048 47.2503 77.5957 46.9872 77.5957Z" fill="#003B72"/>
<path d="M44.8505 43.7642C44.5874 43.7642 44.3283 43.8733 44.1426 44.0643C43.9557 44.2539 43.8488 44.5185 43.8488 44.7873C43.8488 45.056 43.9557 45.3207 44.1426 45.5103C44.3283 45.7013 44.5874 45.8104 44.8505 45.8104C45.1136 45.8104 45.3727 45.7013 45.5583 45.5103C45.7453 45.3207 45.8521 45.056 45.8521 44.7873C45.8521 44.5185 45.7453 44.2539 45.5583 44.0643C45.3727 43.8733 45.1149 43.7642 44.8505 43.7642Z" fill="#003B72"/>
<path d="M61.9453 59.043C61.6822 59.043 61.4231 59.1521 61.2375 59.3431C61.0505 59.5327 60.9437 59.7974 60.9437 60.0661C60.9437 60.3362 61.0505 60.5995 61.2375 60.7891C61.4231 60.9801 61.6822 61.0892 61.9453 61.0892C62.2084 61.0892 62.4675 60.9801 62.6531 60.7891C62.8401 60.5995 62.947 60.3362 62.947 60.0661C62.947 59.7974 62.8401 59.5327 62.6531 59.3431C62.4675 59.1521 62.2084 59.043 61.9453 59.043Z" fill="#003B72"/>
<path d="M90.0851 41.1451C90.2707 41.336 90.5298 41.4452 90.7929 41.4452C91.056 41.4452 91.3151 41.336 91.5007 41.1451C91.6877 40.9554 91.7946 40.6908 91.7946 40.4221C91.7946 40.1533 91.6877 39.8887 91.5007 39.699C91.3151 39.5081 91.056 39.3989 90.7929 39.3989C90.5298 39.3989 90.2707 39.5081 90.0851 39.699C89.8981 39.8887 89.7913 40.1533 89.7913 40.4221C89.7913 40.6908 89.8981 40.9554 90.0851 41.1451Z" fill="#003B72"/>
<path d="M91.7945 48.2528V44.5952C93.632 44.1348 94.9998 42.439 94.9998 40.4221C94.9998 38.0527 93.1125 36.1249 90.7928 36.1249H82.9873C82.6338 35.4749 81.9552 35.0336 81.177 35.0336H33.0309V34.9654C33.0309 33.7996 32.1023 32.8511 30.9608 32.8511H28.824C27.6825 32.8511 26.7539 33.7996 26.7539 34.9655V50.2443C26.7539 51.4102 27.6825 52.3587 28.824 52.3587H30.9608C32.1023 52.3587 33.0309 51.4102 33.0309 50.2443V45.8107H40.763C40.9338 46.5291 41.2849 47.1923 41.7986 47.7452C42.5895 48.5965 43.7019 49.0847 44.8505 49.0847H48.6234L54.533 57.1333V63.3403C54.533 63.9054 54.9815 64.3634 55.5347 64.3634H57.7417C57.7402 64.3861 57.7383 64.4086 57.7383 64.4316V68.797C57.7383 69.4364 57.2291 69.9565 56.6031 69.9565H52.2626V67.7198C52.2626 67.7168 52.2626 67.7138 52.2626 67.7108V67.7057C52.2626 67.6991 52.2618 67.6927 52.2617 67.6862C52.2612 67.6598 52.2604 67.6334 52.2578 67.6068C52.2562 67.5897 52.2533 67.5732 52.2509 67.5564C52.2485 67.5402 52.2467 67.5241 52.2437 67.5079C52.2386 67.4813 52.2319 67.4552 52.2248 67.4294C52.2232 67.4236 52.2223 67.4175 52.2206 67.4115L52.2192 67.4069C52.2183 67.4039 52.2175 67.4008 52.2166 67.3978L49.4722 58.0537C49.0707 56.6872 47.8626 55.7692 46.4659 55.7692H32.0293C30.2987 55.7692 28.8908 57.2073 28.8908 58.975V66.8509C27.6501 67.2789 26.7539 68.4783 26.7539 69.8883V78.619C26.7539 82.7938 30.079 86.1902 34.1661 86.1902C37.9134 86.1902 41.0181 83.3344 41.5088 79.6422H42.7803V79.7104C42.7803 81.4781 44.1883 82.9162 45.9188 82.9162H52.3294C54.06 82.9162 55.4679 81.4781 55.4679 79.7104V79.6422H67.4238C67.9146 83.3344 71.0192 86.1902 74.7664 86.1902C78.5171 86.1902 81.6241 83.3291 82.1104 79.6318C82.1546 79.6379 82.1995 79.6422 82.2454 79.6422H86.5191C87.6606 79.6422 88.5892 78.6937 88.5892 77.5277V63.3403C88.5892 63.332 88.5881 63.3241 88.588 63.3159C88.5875 63.2945 88.5867 63.2731 88.5848 63.2515C88.5836 63.2368 88.5817 63.2222 88.5799 63.2077C88.5776 63.1897 88.575 63.1718 88.5718 63.1538C88.5685 63.1355 88.5645 63.1177 88.5602 63.0998C88.5569 63.0859 88.5537 63.072 88.5497 63.0581C88.5438 63.0369 88.5368 63.0163 88.5296 62.9959C88.527 62.9884 88.5252 62.9807 88.5224 62.9731L84.234 51.584C83.4561 49.518 81.4773 48.1299 79.3103 48.1299H71.5611C69.8305 48.1299 68.4226 49.568 68.4226 51.3357V59.0432H66.0308C65.7371 57.8199 64.9295 56.8014 63.8559 56.2398C63.8242 56.1896 63.7888 56.1413 63.7477 56.096L54.3975 45.8107H81.177C81.9552 45.8107 82.6338 45.3694 82.9873 44.7194H89.7912V49.1529C89.7912 49.718 90.2397 50.1761 90.7928 50.1761C92.0079 50.1761 92.9965 51.1858 92.9965 52.4269C92.9965 53.6681 92.0079 54.6778 90.7928 54.6778C89.5778 54.6778 88.5892 53.6681 88.5892 52.4269C88.5892 51.8619 88.1407 51.4038 87.5875 51.4038C87.0344 51.4038 86.5859 51.8619 86.5859 52.4269C86.5859 54.7964 88.4731 56.7241 90.7928 56.7241C93.1125 56.7241 94.9998 54.7964 94.9998 52.4269C94.9998 50.4099 93.6322 48.713 91.7945 48.2528ZM92.9965 40.4222C92.9965 41.6634 92.0079 42.6731 90.7928 42.6731H83.2471V38.1713H90.7928C92.0079 38.1713 92.9965 39.1811 92.9965 40.4222ZM31.0276 50.2443C31.0276 50.2793 30.9952 50.3125 30.9608 50.3125H28.824C28.7897 50.3125 28.7572 50.2793 28.7572 50.2443V34.9655C28.7572 34.9305 28.7897 34.8973 28.824 34.8973H30.9608C30.9952 34.8973 31.0276 34.9305 31.0276 34.9655V36.0569V44.7876V50.2443ZM33.0309 37.08H81.177C81.2138 37.08 81.2438 37.1107 81.2438 37.1482V39.3991H55.7939C54.6702 39.3991 53.6138 39.846 52.8193 40.6578L51.2086 42.303L50.8093 41.8636C50.016 40.9911 48.8923 40.4906 47.7265 40.4906H45.0319C42.9709 40.4906 41.2328 41.8763 40.767 43.7646H33.0309V37.08ZM49.1241 47.0385H44.8504C44.2399 47.0385 43.6721 46.7892 43.2516 46.3366C42.8315 45.8845 42.6178 45.2907 42.65 44.6649C42.7102 43.4913 43.7786 42.5366 45.0318 42.5366H47.7264C48.3371 42.5366 48.9257 42.7987 49.3412 43.2557L60.7167 55.7692H56.0355L49.9254 47.4477C49.7362 47.19 49.4394 47.0385 49.1241 47.0385ZM28.7572 69.8883C28.7572 69.2489 29.2664 68.7288 29.8924 68.7288H32.0293C32.5825 68.7288 33.0309 68.2707 33.0309 67.7057C33.0309 67.1406 32.5825 66.6825 32.0293 66.6825H30.8941V58.975C30.8941 58.3356 31.4033 57.8154 32.0293 57.8154H46.4659C46.9711 57.8154 47.4081 58.1476 47.5533 58.6418L49.9148 66.6825H36.3034C35.7502 66.6825 35.3017 67.1406 35.3017 67.7057C35.3017 68.2707 35.7502 68.7288 36.3034 68.7288H50.2593V74.3219H45.9188H40.5767C40.4783 74.3219 40.3833 74.337 40.2934 74.364C38.958 72.3639 36.7099 71.0479 34.1661 71.0479C32.0341 71.0479 30.1108 71.9733 28.7572 73.4502V69.8883ZM34.1661 84.1439C31.1836 84.1439 28.7572 81.6655 28.7572 78.619C28.7572 75.5726 31.1836 73.0941 34.1661 73.0941C37.1486 73.0941 39.575 75.5726 39.575 78.619C39.575 81.6655 37.1486 84.1439 34.1661 84.1439ZM41.5088 77.5959C41.4528 77.1751 41.3649 76.7643 41.2439 76.3681H42.9938C42.8566 76.728 42.7805 77.1189 42.7805 77.5277V77.5959H41.5088ZM53.4646 79.7104C53.4646 80.3498 52.9554 80.8699 52.3294 80.8699H45.9188C45.2929 80.8699 44.7836 80.3498 44.7836 79.7104V77.5277C44.7836 76.8883 45.2929 76.3681 45.9188 76.3681H52.3294C52.9554 76.3681 53.4646 76.8883 53.4646 77.5277V79.7104ZM55.2546 76.3681H67.6887C67.5677 76.7643 67.4799 77.1751 67.4239 77.5959H55.4679V77.5277C55.4679 77.1189 55.3918 76.728 55.2546 76.3681ZM74.7664 84.1439C71.7839 84.1439 69.3575 81.6655 69.3575 78.619C69.3575 75.5726 71.7839 73.0941 74.7664 73.0941C77.7489 73.0941 80.1753 75.5726 80.1753 78.619C80.1753 81.6655 77.7489 84.1439 74.7664 84.1439ZM85.7182 61.2258H76.9033C75.6882 61.2258 74.6996 60.2161 74.6996 58.975V54.5414H83.2013L85.7182 61.2258ZM86.5859 72.1392H85.4507C85.4164 72.1392 85.3839 72.1061 85.3839 72.071V70.9797C85.3839 70.9446 85.4164 70.9115 85.4507 70.9115H86.5859V72.1392ZM70.4259 51.3356C70.4259 50.6962 70.9352 50.1761 71.5611 50.1761H79.3102C80.6542 50.1761 81.8816 51.0371 82.3641 52.3185L82.4306 52.4951H73.698C73.1448 52.4951 72.6963 52.9532 72.6963 53.5183V58.975C72.6963 61.3444 74.5836 63.2721 76.9033 63.2721H86.4887L86.5859 63.5303V68.8652H85.4507C84.3092 68.8652 83.3806 69.8137 83.3806 70.9797V72.071C83.3806 73.237 84.3092 74.1855 85.4507 74.1855H86.5859V77.5277C86.5859 77.5652 86.556 77.5959 86.5191 77.5959H82.2454C82.1995 77.5959 82.1546 77.6001 82.1104 77.6063C81.6241 73.909 78.5171 71.0479 74.7664 71.0479C73.1463 71.0479 71.647 71.583 70.4259 72.4874V51.3356ZM68.4262 74.3254C68.4028 74.3238 68.3796 74.3219 68.3558 74.3219H52.3294H52.2626V72.0028H56.6031C58.3337 72.0028 59.7416 70.5647 59.7416 68.797V64.4316C59.7416 64.4086 59.7398 64.3861 59.7383 64.3634H61.9453C63.9199 64.3634 65.5801 62.9664 66.0308 61.0894H68.4226V74.2537C68.4226 74.278 68.4245 74.3017 68.4262 74.3254ZM61.9453 62.3172H56.5363V57.8154H61.9453C63.1603 57.8154 64.1489 58.8252 64.1489 60.0663C64.1489 61.3074 63.1603 62.3172 61.9453 62.3172ZM81.177 43.7644H52.6108L54.2358 42.1047C54.652 41.6794 55.2054 41.4454 55.7939 41.4454H81.2438V43.6962C81.2438 43.7338 81.2138 43.7644 81.177 43.7644Z" fill="#003B72"/>
<path d="M34.1661 61.0892H38.4398C38.993 61.0892 39.4414 60.6311 39.4414 60.0661C39.4414 59.5011 38.993 59.043 38.4398 59.043H34.1661C33.6129 59.043 33.1644 59.5011 33.1644 60.0661C33.1644 60.6311 33.6129 61.0892 34.1661 61.0892Z" fill="#003B72"/>
<path d="M34.1661 64.3632H38.4398C38.993 64.3632 39.4414 63.9051 39.4414 63.34C39.4414 62.775 38.993 62.3169 38.4398 62.3169H34.1661C33.6129 62.3169 33.1644 62.775 33.1644 63.34C33.1644 63.9051 33.6129 64.3632 34.1661 64.3632Z" fill="#003B72"/>
<circle opacity="0.2" cx="60" cy="60" r="59" stroke="#003B72" stroke-width="2"/>
</svg>
