<svg width="120" height="120" viewBox="0 0 120 120" fill="none" xmlns="http://www.w3.org/2000/svg">
<path fill-rule="evenodd" clip-rule="evenodd" d="M30.7319 42.5466C30.7319 42.1613 30.8856 41.7917 31.1592 41.5193C31.4328 41.2468 31.8038 41.0938 32.1907 41.0938H90.5414C90.9283 41.0938 91.2993 41.2468 91.5729 41.5193C91.8465 41.7917 92.0002 42.1613 92.0002 42.5466V62.8863C92.0001 63.2403 91.8702 63.5822 91.6349 63.8475C91.3996 64.1129 91.075 64.2836 90.7223 64.3275L67.382 67.2332L67.0202 64.3507L89.0826 61.6049V43.9994H33.6495V61.6049L55.7119 64.3507L55.3501 67.2332L32.0098 64.3275C31.6571 64.2836 31.3326 64.1129 31.0972 63.8475C30.8619 63.5822 30.732 63.2403 30.7319 62.8863V42.5466Z" fill="#003B72"/>
<path fill-rule="evenodd" clip-rule="evenodd" d="M54.0726 58.528C54.0726 58.1427 54.2263 57.7731 54.4998 57.5007C54.7734 57.2282 55.1444 57.0752 55.5313 57.0752H67.2015C67.5884 57.0752 67.9594 57.2282 68.233 57.5007C68.5066 57.7731 68.6602 58.1427 68.6602 58.528V73.0564C68.6602 73.4417 68.5066 73.8112 68.233 74.0837C67.9594 74.3561 67.5884 74.5092 67.2015 74.5092H55.5313C55.1444 74.5092 54.7734 74.3561 54.4998 74.0837C54.2263 73.8112 54.0726 73.4417 54.0726 73.0564V58.528ZM56.9901 59.9808V71.6035H65.7427V59.9808H56.9901ZM51.155 38.1883C51.155 36.647 51.7698 35.1689 52.8641 34.0791C53.9584 32.9892 55.4425 32.377 56.9901 32.377H65.7427C67.2903 32.377 68.7744 32.9892 69.8687 34.0791C70.963 35.1689 71.5778 36.647 71.5778 38.1883V42.5468H68.6602V38.1883C68.6602 37.4177 68.3529 36.6786 67.8057 36.1337C67.2586 35.5888 66.5165 35.2826 65.7427 35.2826H56.9901C56.2163 35.2826 55.4742 35.5888 54.9271 36.1337C54.3799 36.6786 54.0726 37.4177 54.0726 38.1883V42.5468H51.155V38.1883Z" fill="#003B72"/>
<path fill-rule="evenodd" clip-rule="evenodd" d="M33.6487 86.1319V64.3394H36.5662V84.6791H86.1643V64.3394H89.0819V86.1319C89.0819 86.5172 88.9282 86.8867 88.6546 87.1592C88.381 87.4317 88.01 87.5847 87.6231 87.5847H35.1075C34.7206 87.5847 34.3495 87.4317 34.0759 87.1592C33.8024 86.8867 33.6487 86.5172 33.6487 86.1319Z" fill="#003B72"/>
<circle opacity="0.2" cx="60" cy="60" r="59" stroke="#003B72" stroke-width="2"/>
</svg>
