<svg width="120" height="120" viewBox="0 0 120 120" fill="none" xmlns="http://www.w3.org/2000/svg">
<path d="M25.1328 74.5734C25.6758 71.7682 28.1492 71.1046 30.3209 69.9584C28.8429 69.2646 27.6062 68.4502 26.6711 67.2135C26.3393 66.7912 26.1584 66.3388 26.3695 65.7958C27.0633 64.1368 27.1236 62.3874 27.2141 60.6379C27.3046 58.9487 27.2443 57.2596 27.6364 55.6006C28.481 51.9206 31.5275 49.0551 35.0264 48.6328C39.3398 48.12 43.2008 50.6839 44.5279 54.8766C44.9804 56.3245 45.0407 57.8327 45.0709 59.3107C45.1312 60.9093 45.1915 62.4779 45.463 64.0464C45.5535 64.529 45.644 65.0116 45.8551 65.4339C46.1869 66.1276 46.0361 66.7007 45.5535 67.2738C44.6184 68.4201 43.4421 69.2043 42.0847 69.8377C42.5673 70.26 42.9293 70.3807 43.5326 70.0791C45.3725 69.1742 47.3633 68.6312 49.2636 67.8771C49.9272 67.6056 50.5607 67.4548 50.9226 66.6706C51.2243 66.007 51.9482 65.4942 52.4911 64.9513C52.7324 64.71 52.8531 64.4385 52.8229 64.0765C52.8229 63.986 52.8229 63.8955 52.8229 63.805C53.0341 62.0857 52.5514 60.7284 51.2846 59.4012C49.2033 57.2294 48.3889 54.394 48.3889 51.4078C48.3889 49.8997 48.0571 48.5121 47.7253 47.0945C47.0013 43.867 46.7902 40.5791 48.2984 37.4723C50.0177 34.0035 52.9134 32.0429 56.7743 31.9222C62.0228 31.7714 67.3014 31.8619 72.5499 31.8619C73.3643 31.8619 73.7866 32.2842 73.7866 33.0986C73.7866 36.8087 73.8167 40.5188 73.7866 44.2289C73.7866 45.7069 73.4849 47.1548 72.8816 48.5423C72.6705 48.9948 72.7007 49.4472 72.7007 49.8997C72.7308 51.9508 72.6705 54.0019 71.9164 55.9625C71.1925 57.8327 70.1368 59.4313 68.6588 60.7887C68.3873 61.03 68.2063 61.3015 68.2666 61.6634C68.2666 61.7238 68.2666 61.8143 68.2666 61.8746C67.9952 63.7146 68.4175 65.2831 69.986 66.3991C70.0463 66.4293 70.1066 66.4896 70.1368 66.5499C70.4082 67.6056 71.3735 67.6961 72.1879 67.9978C73.3643 68.4201 74.5406 68.8122 75.6869 69.2948C76.26 69.5361 76.7727 69.5964 77.3458 69.3551C77.6173 69.2345 77.9189 69.1741 78.1904 69.0837C79.5478 68.6915 79.6383 68.5105 79.4573 67.123C79.4271 66.8817 79.2763 66.7611 79.1255 66.6404C77.0744 64.9211 76.079 62.689 76.1393 60.0346C76.1695 59.1599 75.9885 58.3756 75.5964 57.5914C73.7564 53.7304 76.5616 48.9043 80.8448 48.6026C84.374 48.3613 87.9031 48.5423 91.4322 48.5121C92.1561 48.5121 92.6086 48.8741 92.6086 49.5377C92.6086 51.7396 92.7594 53.9114 92.5181 56.1133C92.4578 56.6261 92.3371 57.1389 92.0656 57.5612C91.583 58.4058 91.4925 59.2805 91.5227 60.2156C91.583 62.87 90.648 65.0719 88.5365 66.7309C87.9031 67.2135 88.2349 67.8771 88.2349 68.4502C88.2349 68.8725 88.6873 68.9027 89.0191 68.9932C90.2257 69.3551 91.4624 69.6869 92.6689 70.0489C94.7803 70.6823 95.9567 72.281 95.9567 74.4528C95.9567 77.1373 95.9567 79.7917 95.9567 82.4763C95.9567 83.3812 95.5646 83.8939 94.901 83.8939C94.2374 83.8939 93.8754 83.3812 93.8754 82.4461C93.8754 79.8822 93.8754 77.3183 93.8754 74.7544C93.8754 73.1256 93.3325 72.4016 91.7942 71.9492C90.4971 71.5571 89.1699 71.1951 87.8729 70.803C87.6014 70.7125 87.3903 70.7125 87.2093 70.9538C87.1792 70.984 87.149 71.0141 87.1188 71.0443C86.3949 71.7984 85.3995 72.4016 85.0074 73.3065C84.6454 74.1813 84.8867 75.2973 84.8867 76.3229C84.8867 78.3439 84.8867 80.395 84.8867 82.4159C84.8867 82.6874 84.8867 82.9589 84.7962 83.2303C84.6153 83.6828 84.2533 83.9241 83.7707 83.8939C83.2881 83.8638 82.9563 83.5621 82.8658 83.0795C82.8054 82.8382 82.8356 82.5667 82.8356 82.3254C82.8356 79.5202 82.8356 76.6849 82.8356 73.8797C82.8356 73.4875 82.7451 73.1859 82.4435 72.9144C81.9307 72.462 81.4481 71.9492 80.9655 71.4666C80.1511 70.6522 80.1511 70.6522 78.9747 71.1348C80.4225 72.643 80.5432 74.4829 80.513 76.4134C80.4828 78.374 80.513 80.3347 80.513 82.2953C80.513 82.5064 80.513 82.7176 80.513 82.9287C80.4225 83.532 80.0002 83.9241 79.4573 83.9241C78.9143 83.8939 78.4921 83.5018 78.4619 82.8684C78.4317 81.6618 78.4619 80.4553 78.4619 79.2789C78.4619 77.8612 78.4619 76.4737 78.4619 75.056C78.4619 73.4272 77.6475 72.2508 76.1091 71.6777C74.058 70.9236 72.0069 70.1695 69.9558 69.4155C69.624 69.2948 69.443 69.3551 69.2319 69.6568C68.4476 70.8633 67.6634 72.0397 66.8489 73.2161C65.8535 74.6941 64.4359 74.8147 63.169 73.578C62.7165 73.1256 62.2943 72.6731 61.8116 72.1603C61.6005 72.4921 61.6608 72.7636 61.6608 73.0049C61.6608 76.0514 61.6608 79.0979 61.6608 82.1445C61.6608 83.3812 61.329 83.9241 60.6051 83.8939C59.8812 83.8939 59.5795 83.3812 59.5795 82.1746C59.5795 79.1281 59.5795 76.0816 59.5795 73.0351C59.5795 72.7938 59.5795 72.5223 59.5795 72.1905C58.9763 72.5525 58.5841 73.0652 58.1619 73.4574C56.7743 74.8147 55.3868 74.6941 54.3009 73.0652C53.5167 71.919 52.7626 70.7728 52.0085 69.5964C51.7973 69.2948 51.6164 69.2345 51.2846 69.3551C49.2335 70.1092 47.1823 70.8331 45.1312 71.6174C43.5627 72.1905 42.7785 73.3669 42.7785 75.0862C42.7785 77.4993 42.7785 79.8822 42.7785 82.2953C42.7785 82.5366 42.7785 82.7477 42.7483 82.989C42.6578 83.5621 42.2959 83.8638 41.7831 83.8939C41.2703 83.9241 40.9083 83.6225 40.7877 83.1097C40.7273 82.8684 40.7274 82.5969 40.7274 82.3556C40.7274 79.9727 40.7274 77.5898 40.7274 75.237C40.7274 74.2718 40.8782 73.3669 41.3004 72.4921C41.3909 72.3112 41.7529 72.0397 41.3306 71.8889C40.9687 71.7381 40.667 71.2253 40.1844 71.6777C39.7923 72.0698 39.4001 72.462 38.9477 72.7938C37.2887 74.0908 35.1471 74.0606 33.5183 72.7938C33.3976 72.7033 33.3071 72.6128 33.1865 72.5223C32.7642 72.1905 32.4625 71.4967 31.9498 71.5269C31.437 71.5269 30.9544 71.9492 30.4718 72.1905C29.9288 72.462 29.3557 72.7636 28.8128 73.0351C27.757 73.5479 27.3046 74.3623 27.3046 75.5386C27.3348 77.8311 27.3046 80.1537 27.3046 82.4461C27.3046 83.0192 27.2442 83.5621 26.6108 83.8035C25.9472 84.0448 25.5853 83.6526 25.2233 83.2002C25.1328 80.395 25.1328 77.4691 25.1328 74.5734ZM63.9834 34.0337C61.691 34.0337 59.4287 34.0035 57.1363 34.0337C53.4865 34.1241 50.3797 36.5976 49.6557 40.1568C49.1731 42.5096 49.143 44.9227 49.9875 47.1849C50.44 48.482 50.5607 49.7187 50.5305 51.0459C50.5305 52.7954 50.8321 54.4845 51.556 56.0832C53.396 60.0346 57.2871 62.2365 61.7513 61.8444C65.6726 61.5126 69.2319 58.4058 70.2876 54.4242C70.7099 52.7954 70.6194 51.1364 70.6495 49.4774C70.6495 48.9646 70.7099 48.482 70.921 47.9994C71.4941 46.7325 71.7354 45.3751 71.7354 43.9575C71.7656 40.8506 71.7354 37.7438 71.7656 34.6068C71.7656 34.1241 71.6449 33.9733 71.1322 34.0035C68.7794 34.0337 66.3663 34.0337 63.9834 34.0337ZM90.6178 53.097C90.6178 52.4937 90.5876 51.8905 90.6178 51.2872C90.6479 50.7744 90.467 50.6236 89.9542 50.6236C87.2998 50.6538 84.6454 50.6236 81.991 50.6538C81.4783 50.6538 80.9655 50.7141 80.4829 50.8347C77.7983 51.4983 76.26 54.6655 77.6777 57.1087C78.1301 57.893 78.3111 58.7074 78.2507 59.6123C78.2206 60.5172 78.2809 61.392 78.5222 62.2667C79.1858 64.4686 81.0861 66.007 83.469 66.2785C85.49 66.5198 87.6919 65.2831 88.7476 63.3828C89.2906 62.4175 89.4414 61.3618 89.4716 60.2458C89.5017 59.4615 89.2303 58.6169 89.6224 57.9232C90.5273 56.4451 90.7384 54.8163 90.6178 53.097ZM42.9594 59.552C43.0198 56.4753 42.4768 54.6957 41.0591 52.9462C38.6461 49.9902 33.7897 49.9902 31.3163 52.916C29.9288 54.5448 29.416 56.4451 29.416 58.5566C29.416 59.1297 29.1747 59.7631 30.0796 59.9139C30.2304 59.9441 30.3511 60.1553 30.4416 60.3061C30.6527 60.668 30.6226 61.1205 30.6527 61.5126C30.9242 63.8654 33.0055 66.1578 35.9012 66.3388C38.2238 66.4896 40.667 64.9211 41.4814 62.6287C41.7227 61.9349 41.6926 61.3316 41.2401 60.6982C39.6113 58.4661 37.2887 57.6215 34.6645 57.4104C34.393 57.3802 34.2422 57.531 34.0914 57.712C33.6691 58.1645 33.2468 58.6169 32.7642 59.0392C32.4324 59.3408 32.0101 59.371 31.618 59.1599C31.2258 58.9487 31.075 58.6169 31.1052 58.1946C31.1655 57.5009 33.3674 55.2989 34.0612 55.3291C36.0822 55.3593 38.0428 55.8117 39.8224 56.7769C41.029 57.3802 42.0545 58.255 42.9594 59.552ZM66.1552 62.6588C65.944 62.7493 65.7932 62.7795 65.6726 62.8398C63.6516 63.7749 61.51 64.1067 59.2779 63.8955C57.9507 63.7447 56.714 63.4129 55.5075 62.8398C55.3567 62.7795 55.1757 62.508 54.9947 62.7795C54.7232 63.2018 55.055 64.5591 55.4773 64.8306C57.0458 65.8863 58.5841 66.942 60.1526 68.0279C60.4844 68.2692 60.7257 68.2692 61.0575 68.0279C62.3546 67.123 63.6215 66.1276 65.009 65.3735C66.125 64.7401 66.4568 63.9559 66.2457 62.8096C66.1853 62.8096 66.1854 62.7795 66.1552 62.6588ZM62.2038 69.7774C63.0182 70.5918 63.7723 71.3158 64.5264 72.0698C64.828 72.4016 64.9788 72.3112 65.19 71.9794C65.9742 70.7728 66.7886 69.5663 67.603 68.3597C68.2063 67.4247 68.2063 67.4548 67.4221 66.7007C67.2109 66.5198 67.0903 66.4594 66.8489 66.6404C65.3106 67.666 63.8024 68.6915 62.2038 69.7774ZM56.3219 72.3715C56.4124 72.281 56.5029 72.2508 56.5632 72.1905C57.2871 71.4666 57.9809 70.7427 58.7048 70.0489C58.9763 69.7774 58.8255 69.6869 58.6143 69.5361C57.2268 68.601 55.8393 67.6358 54.4517 66.7007C54.1803 66.4896 53.939 66.4896 53.7881 66.7912C53.6072 67.1532 52.8531 67.2437 53.2754 67.8771C54.2104 69.2948 55.1757 70.7125 56.1107 72.1302C56.1711 72.1905 56.2314 72.2508 56.3219 72.3715ZM36.2028 71.7381C37.2887 71.7682 37.9221 70.984 38.6159 70.2902C38.7064 70.1997 38.6461 70.079 38.6159 69.9584C38.4651 69.5059 38.4048 69.0535 38.4651 68.601C38.4953 68.1486 38.3143 68.1184 37.9523 68.2089C36.9569 68.4804 35.9615 68.4804 34.936 68.3296C33.9406 68.1787 33.9406 68.1787 33.8802 69.2043C33.8802 69.4155 33.8199 69.6568 33.7596 69.8679C33.7294 69.9886 33.6389 70.1394 33.7596 70.26C34.4232 70.984 35.0566 71.7381 36.2028 71.7381ZM86.1838 68.6915C86.3044 68.0883 85.9726 68.1184 85.5202 68.2089C84.4343 68.4804 83.3182 68.5106 82.2625 68.2089C81.7497 68.0581 81.5687 68.1486 81.5687 68.6915C81.5687 68.9932 81.6291 69.2043 81.8402 69.4155C82.4133 69.9886 82.9864 70.5315 83.5595 71.1348C83.8008 71.3761 83.9516 71.4364 84.2231 71.1649C84.7962 70.5617 85.3694 69.9886 85.9726 69.4155C86.1536 69.2043 86.2441 68.9932 86.1838 68.6915ZM29.0842 63.805C28.9032 64.5591 28.7524 65.1926 28.5714 65.7958C28.481 66.1276 28.5413 66.3086 28.7826 66.5198C29.5367 67.2437 30.4114 67.7565 31.4068 68.1486C31.5275 68.2089 31.7688 68.3296 31.7688 68.0883C31.7688 67.6961 31.9799 67.2437 31.5878 66.942C30.5321 66.0975 29.7177 65.0719 29.0842 63.805ZM43.2309 63.8352C42.5975 65.1322 41.8132 66.1276 40.7575 66.942C40.3352 67.2437 40.5464 67.6961 40.5765 68.0883C40.5765 68.2692 40.7877 68.2089 40.9083 68.1486C41.9339 67.7263 42.869 67.2135 43.623 66.4293C43.7437 66.3086 43.8643 66.1578 43.804 65.9467C43.623 65.2831 43.4421 64.6195 43.2309 63.8352Z" fill="#003B72"/>
<path d="M89.502 79.5503C89.502 78.5247 89.502 77.469 89.502 76.4434C89.502 75.6893 89.9242 75.2369 90.5577 75.267C91.1609 75.267 91.5832 75.7195 91.5832 76.4133C91.6134 78.5247 91.5832 80.6663 91.5832 82.7778C91.5832 83.5017 91.1308 83.9843 90.5275 83.9843C89.9242 83.9843 89.5321 83.5017 89.502 82.7476C89.502 81.6617 89.502 80.606 89.502 79.5503Z" fill="#003B72"/>
<path d="M31.6484 80.3046C31.6484 81.1491 31.6484 81.9636 31.6484 82.8081C31.6484 83.5019 31.2262 83.9544 30.6229 83.9845C30.0498 83.9845 29.5672 83.5321 29.5672 82.8383C29.537 81.1491 29.537 79.46 29.5672 77.801C29.5672 77.1072 29.9895 76.6548 30.5927 76.6548C31.2262 76.6548 31.6183 77.1072 31.6484 77.8613C31.6786 78.6456 31.6484 79.4902 31.6484 80.3046Z" fill="#003B72"/>
<path d="M71.7664 80.6665C71.7664 79.9727 71.7664 79.279 71.7664 78.5852C71.7965 77.9216 72.1585 77.4993 72.7316 77.439C73.3349 77.4089 73.8175 77.8311 73.8476 78.4947C73.8778 79.9426 73.8778 81.3904 73.8476 82.8383C73.8476 83.4717 73.365 83.9242 72.8221 83.9242C72.249 83.9242 71.8267 83.4717 71.7965 82.778C71.7664 82.1144 71.7664 81.3904 71.7664 80.6665Z" fill="#003B72"/>
<path d="M49.4154 80.6962C49.4154 81.4202 49.4456 82.1139 49.4154 82.8379C49.3852 83.5014 48.9931 83.9237 48.4502 83.9539C47.8771 83.9841 47.3945 83.5316 47.3643 82.868C47.3341 81.4503 47.3341 80.0025 47.3643 78.5848C47.3945 77.891 47.8168 77.4688 48.42 77.4688C49.0233 77.4688 49.4154 77.891 49.4154 78.615C49.4154 79.3087 49.4154 80.0025 49.4154 80.6962Z" fill="#003B72"/>
<path d="M58.8857 41.3633C61.5401 41.4538 64.4659 41.6348 67.1505 43.0524C67.8443 43.4144 68.4777 43.8669 69.0508 44.44C69.4731 44.8924 69.5032 45.4354 69.1413 45.8878C68.7793 46.3101 68.1761 46.4006 67.7236 46.0085C65.0089 43.6255 61.6607 43.5351 58.3427 43.5049C57.0457 43.5049 55.7185 43.6255 54.4215 43.8065C53.969 43.8669 53.8484 44.0478 53.8785 44.4701C53.9087 45.0734 53.9087 45.6767 53.8785 46.2799C53.8484 46.9737 53.4563 47.3658 52.8832 47.3658C52.2799 47.3658 51.8576 47.0039 51.8274 46.3101C51.7973 45.4957 51.7671 44.6511 51.8274 43.8367C51.8878 42.7206 52.672 41.9666 53.7579 41.8157C55.3566 41.5443 56.9854 41.4236 58.8857 41.3633Z" fill="#003B72"/>
<path d="M81.7492 54.1828C83.6193 54.3034 85.4593 54.4844 87.2389 55.1782C87.3596 55.2385 87.5104 55.2687 87.6311 55.329C88.174 55.6306 88.3851 56.1133 88.2041 56.6562C87.9628 57.2595 87.4802 57.4706 86.9071 57.2595C84.9163 56.4752 82.835 56.3546 80.7538 56.2339C79.9695 56.2037 79.5774 55.7815 79.5774 55.148C79.6076 54.4844 80.06 54.1225 80.8744 54.1526C81.1459 54.1526 81.4475 54.1828 81.7492 54.1828Z" fill="#003B72"/>
<path d="M25.1759 74.6408C25.7188 71.8356 28.1923 71.172 30.364 70.0258C28.886 69.332 27.6493 68.5176 26.7142 67.2809C26.3824 66.8586 26.2015 66.4062 26.4126 65.8632C27.1064 64.2042 27.1667 62.4547 27.2572 60.7053C27.3477 59.0161 27.2873 57.3269 27.6795 55.6679C28.524 51.988 31.5706 49.1225 35.0695 48.7002C39.3829 48.1874 43.2438 50.7513 44.571 54.944C45.0235 56.3919 45.0838 57.9 45.114 59.3781C45.1743 60.9767 45.2346 62.5452 45.5061 64.1137C45.5966 64.5964 45.6871 65.079 45.8982 65.5013C46.23 66.195 46.0792 66.7681 45.5966 67.3412C44.6615 68.4874 43.4852 69.2717 42.1278 69.9051C42.6104 70.3274 42.9724 70.4481 43.5756 70.1464C45.4156 69.2415 47.4064 68.6986 49.3067 67.9445C49.9703 67.673 50.6037 67.5222 50.9657 66.738C51.2673 66.0744 51.9913 65.5616 52.5342 65.0186C52.7755 64.7773 52.8962 64.5059 52.866 64.1439C52.866 64.0534 52.866 63.9629 52.866 63.8724C53.0771 62.1531 52.5945 60.7957 51.3277 59.4686C49.2464 57.2968 48.432 54.4614 48.432 51.4752C48.432 49.967 48.1002 48.5795 47.7684 47.1618C47.0444 43.9343 46.8333 40.6465 48.3415 37.5397C50.0608 34.0709 52.9565 32.1102 56.8174 31.9896C62.0659 31.8388 67.3445 31.9293 72.5929 31.9293C73.4074 31.9293 73.8296 32.3516 73.8296 33.166C73.8296 36.8761 73.8598 40.5862 73.8296 44.2963C73.8296 45.7743 73.528 47.2222 72.9247 48.6097C72.7136 49.0621 72.7438 49.5146 72.7438 49.967C72.7739 52.0182 72.7136 54.0693 71.9595 56.0299C71.2356 57.9 70.1799 59.4987 68.7018 60.8561C68.4304 61.0974 68.2494 61.3689 68.3097 61.7308C68.3097 61.7911 68.3097 61.8816 68.3097 61.942C68.0383 63.7819 68.4605 65.3504 70.029 66.4665C70.0894 66.4967 70.1497 66.557 70.1799 66.6173C70.4513 67.673 71.4166 67.7635 72.231 68.0652C73.4074 68.4874 74.5837 68.8796 75.7299 69.3622C76.303 69.6035 76.8158 69.6638 77.3889 69.4225C77.6604 69.3019 77.962 69.2415 78.2335 69.151C79.5909 68.7589 79.6814 68.5779 79.5004 67.1904C79.4702 66.9491 79.3194 66.8284 79.1686 66.7078C77.1175 64.9885 76.1221 62.7564 76.1824 60.102C76.2126 59.2272 76.0316 58.443 75.6395 57.6587C73.7995 53.7978 76.6047 48.9717 80.8879 48.67C84.417 48.4287 87.9462 48.6097 91.4753 48.5795C92.1992 48.5795 92.6517 48.9415 92.6517 49.6051C92.6517 51.807 92.8025 53.9788 92.5612 56.1807C92.5008 56.6935 92.3802 57.2063 92.1087 57.6286C91.6261 58.4732 91.5356 59.3479 91.5658 60.283C91.6261 62.9374 90.6911 65.1393 88.5796 66.7983C87.9462 67.2809 88.278 67.9445 88.278 68.5176C88.278 68.9399 88.7304 68.9701 89.0622 69.0606C90.2688 69.4225 91.5055 69.7543 92.712 70.1163C94.8234 70.7497 95.9998 72.3484 95.9998 74.5201C95.9998 77.2047 95.9998 79.8591 95.9998 82.5436C95.9998 83.4485 95.6077 83.9613 94.9441 83.9613C94.2805 83.9613 93.9185 83.4486 93.9185 82.5135C93.9185 79.9496 93.9185 77.3857 93.9185 74.8218C93.9185 73.193 93.3756 72.469 91.8373 72.0166C90.5402 71.6244 89.213 71.2625 87.916 70.8704C87.6445 70.7799 87.4334 70.7799 87.2524 71.0212C87.2222 71.0513 87.1921 71.0815 87.1619 71.1117C86.438 71.8658 85.4426 72.469 85.0505 73.3739C84.6885 74.2487 84.9298 75.3647 84.9298 76.3903C84.9298 78.4112 84.9298 80.4624 84.9298 82.4833C84.9298 82.7548 84.9298 83.0263 84.8393 83.2977C84.6583 83.7502 84.2964 83.9915 83.8138 83.9613C83.3311 83.9312 82.9993 83.6295 82.9089 83.1469C82.8485 82.9056 82.8787 82.6341 82.8787 82.3928C82.8787 79.5876 82.8787 76.7522 82.8787 73.947C82.8787 73.5549 82.7882 73.2533 82.4866 72.9818C81.9738 72.5294 81.4912 72.0166 81.0086 71.534C80.1941 70.7195 80.1941 70.7195 79.0178 71.2022C80.4656 72.7103 80.5863 74.5503 80.5561 76.4808C80.5259 78.4414 80.5561 80.402 80.5561 82.3627C80.5561 82.5738 80.5561 82.7849 80.5561 82.9961C80.4656 83.5994 80.0433 83.9915 79.5004 83.9915C78.9574 83.9613 78.5352 83.5692 78.505 82.9358C78.4748 81.7292 78.505 80.5227 78.505 79.3463C78.505 77.9286 78.505 76.5411 78.505 75.1234C78.505 73.4946 77.6906 72.3182 76.1522 71.7451C74.1011 70.991 72.05 70.2369 69.9989 69.4828C69.6671 69.3622 69.4861 69.4225 69.275 69.7241C68.4907 70.9307 67.7065 72.1071 66.892 73.2834C65.8966 74.7615 64.479 74.8821 63.2121 73.6454C62.7596 73.1929 62.3373 72.7405 61.8547 72.2277C61.6436 72.5595 61.7039 72.831 61.7039 73.0723C61.7039 76.1188 61.7039 79.1653 61.7039 82.2118C61.7039 83.4486 61.3721 83.9915 60.6482 83.9613C59.9243 83.9613 59.6226 83.4485 59.6226 82.242C59.6226 79.1955 59.6226 76.149 59.6226 73.1025C59.6226 72.8612 59.6226 72.5897 59.6226 72.2579C59.0194 72.6199 58.6272 73.1326 58.2049 73.5247C56.8174 74.8821 55.4299 74.7615 54.344 73.1326C53.5598 71.9864 52.8057 70.8402 52.0516 69.6638C51.8404 69.3622 51.6595 69.3019 51.3277 69.4225C49.2766 70.1766 47.2254 70.9005 45.1743 71.6848C43.6058 72.2579 42.8216 73.4343 42.8216 75.1536C42.8216 77.5667 42.8216 79.9496 42.8216 82.3627C42.8216 82.604 42.8215 82.8151 42.7914 83.0564C42.7009 83.6295 42.3389 83.9312 41.8262 83.9613C41.3134 83.9915 40.9514 83.6899 40.8308 83.1771C40.7704 82.9358 40.7704 82.6643 40.7704 82.423C40.7704 80.0401 40.7704 77.6572 40.7704 75.3044C40.7704 74.3392 40.9212 73.4343 41.3435 72.5595C41.434 72.3785 41.796 72.1071 41.3737 71.9563C41.0118 71.8054 40.7101 71.2927 40.2275 71.7451C39.8354 72.1372 39.4432 72.5294 38.9908 72.8612C37.3318 74.1582 35.1902 74.128 33.5614 72.8612C33.4407 72.7707 33.3502 72.6802 33.2296 72.5897C32.8073 72.2579 32.5056 71.5641 31.9928 71.5943C31.4801 71.5943 30.9975 72.0166 30.5148 72.2579C29.9719 72.5294 29.3988 72.831 28.8559 73.1025C27.8001 73.6152 27.3477 74.4297 27.3477 75.606C27.3778 77.8985 27.3477 80.2211 27.3477 82.5135C27.3477 83.0866 27.2873 83.6295 26.6539 83.8708C25.9903 84.1121 25.6284 83.72 25.2664 83.2676C25.1759 80.4624 25.1759 77.5365 25.1759 74.6408ZM64.0265 34.101C61.7341 34.101 59.4718 34.0709 57.1794 34.101C53.5296 34.1915 50.4228 36.6649 49.6988 40.2242C49.2162 42.577 49.186 44.9901 50.0306 47.2523C50.4831 48.5494 50.6037 49.7861 50.5736 51.1133C50.5736 52.8627 50.8752 54.5519 51.5991 56.1506C53.4391 60.102 57.3302 62.3039 61.7944 61.9118C65.7157 61.58 69.275 58.4732 70.3307 54.4916C70.753 52.8627 70.6625 51.2037 70.6926 49.5448C70.6926 49.032 70.753 48.5494 70.9641 48.0667C71.5372 46.7999 71.7785 45.4425 71.7785 44.0248C71.8087 40.918 71.7785 37.8112 71.8087 34.6741C71.8087 34.1915 71.688 34.0407 71.1753 34.0709C68.8225 34.101 66.4094 34.101 64.0265 34.101ZM90.6609 53.1644C90.6609 52.5611 90.6307 51.9578 90.6609 51.3546C90.691 50.8418 90.5101 50.691 89.9973 50.691C87.3429 50.7211 84.6885 50.691 82.0341 50.7211C81.5213 50.7211 81.0086 50.7815 80.5259 50.9021C77.8414 51.5657 76.3031 54.7329 77.7207 57.1761C78.1732 57.9604 78.3542 58.7748 78.2938 59.6797C78.2637 60.5846 78.324 61.4593 78.5653 62.3341C79.2289 64.536 81.1292 66.0744 83.5121 66.3458C85.5331 66.5871 87.735 65.3504 88.7907 63.4501C89.3337 62.4849 89.4845 61.4292 89.5147 60.3131C89.5448 59.5289 89.2734 58.6843 89.6655 57.9905C90.5704 56.5125 90.7815 54.8837 90.6609 53.1644ZM43.0025 59.6194C43.0629 56.5427 42.5199 54.763 41.1022 53.0136C38.6892 50.0575 33.8328 50.0575 31.3594 52.9834C29.9719 54.6122 29.4591 56.5125 29.4591 58.624C29.4591 59.1971 29.2178 59.8305 30.1227 59.9813C30.2735 60.0115 30.3942 60.2226 30.4847 60.3735C30.6958 60.7354 30.6657 61.1879 30.6958 61.58C30.9673 63.9328 33.0486 66.2252 35.9443 66.4062C38.2669 66.557 40.7101 64.9885 41.5245 62.696C41.7658 62.0023 41.7357 61.399 41.2832 60.7656C39.6544 58.5335 37.3318 57.6889 34.7076 57.4778C34.4361 57.4476 34.2853 57.5984 34.1345 57.7794C33.7122 58.2318 33.2899 58.6843 32.8073 59.1066C32.4755 59.4082 32.0532 59.4384 31.6611 59.2272C31.2689 59.0161 31.1181 58.6843 31.1483 58.262C31.2086 57.5683 33.4105 55.3663 34.1043 55.3965C36.1253 55.4266 38.0859 55.8791 39.8655 56.8443C41.0721 57.4476 42.0976 58.3223 43.0025 59.6194ZM66.1983 62.7262C65.9871 62.8167 65.8363 62.8469 65.7157 62.9072C63.6947 63.8423 61.5531 64.1741 59.321 63.9629C57.9938 63.8121 56.7571 63.4803 55.5506 62.9072C55.3997 62.8469 55.2188 62.5754 55.0378 62.8469C54.7663 63.2692 55.0981 64.6265 55.5204 64.898C57.0889 65.9537 58.6272 67.0094 60.1957 68.0953C60.5275 68.3366 60.7688 68.3366 61.1006 68.0953C62.3977 67.1904 63.6645 66.195 65.0521 65.4409C66.1681 64.8075 66.4999 64.0232 66.2888 62.877C66.2284 62.877 66.2284 62.8469 66.1983 62.7262ZM62.2468 69.8448C63.0613 70.6592 63.8154 71.3831 64.5694 72.1372C64.8711 72.469 65.0219 72.3785 65.233 72.0467C66.0173 70.8402 66.8317 69.6337 67.6461 68.4271C68.2494 67.492 68.2494 67.5222 67.4651 66.7681C67.254 66.5871 67.1333 66.5268 66.892 66.7078C65.3537 67.7334 63.8455 68.7589 62.2468 69.8448ZM56.365 72.4389C56.4555 72.3484 56.546 72.3182 56.6063 72.2579C57.3302 71.534 58.024 70.81 58.7479 70.1163C59.0194 69.8448 58.8685 69.7543 58.6574 69.6035C57.2699 68.6684 55.8824 67.7032 54.4948 66.7681C54.2234 66.557 53.9821 66.557 53.8312 66.8586C53.6503 67.2206 52.8962 67.3111 53.3185 67.9445C54.2535 69.3622 55.2188 70.7799 56.1538 72.1976C56.2142 72.2579 56.2745 72.3182 56.365 72.4389ZM36.2459 71.8054C37.3318 71.8356 37.9652 71.0513 38.659 70.3576C38.7495 70.2671 38.6892 70.1464 38.659 70.0258C38.5082 69.5733 38.4479 69.1209 38.5082 68.6684C38.5383 68.216 38.3574 68.1858 37.9954 68.2763C37 68.5478 36.0046 68.5478 34.979 68.3969C33.9836 68.2461 33.9836 68.2461 33.9233 69.2717C33.9233 69.4828 33.863 69.7241 33.8027 69.9353C33.7725 70.0559 33.682 70.2068 33.8027 70.3274C34.4663 71.0513 35.0997 71.8054 36.2459 71.8054ZM86.2268 68.7589C86.3475 68.1556 86.0157 68.1858 85.5633 68.2763C84.4774 68.5478 83.3613 68.5779 82.3056 68.2763C81.7928 68.1255 81.6118 68.216 81.6118 68.7589C81.6118 69.0606 81.6722 69.2717 81.8833 69.4828C82.4564 70.0559 83.0295 70.5989 83.6026 71.2022C83.8439 71.4435 83.9947 71.5038 84.2662 71.2323C84.8393 70.6291 85.4124 70.0559 86.0157 69.4828C86.1967 69.2717 86.2872 69.0606 86.2268 68.7589ZM29.1273 63.8724C28.9463 64.6265 28.7955 65.2599 28.6145 65.8632C28.524 66.195 28.5844 66.376 28.8257 66.5871C29.5798 67.3111 30.4545 67.8238 31.4499 68.216C31.5706 68.2763 31.8119 68.397 31.8119 68.1556C31.8119 67.7635 32.023 67.3111 31.6309 67.0094C30.5752 66.1648 29.7607 65.1393 29.1273 63.8724ZM43.274 63.9026C42.6406 65.1996 41.8563 66.195 40.8006 67.0094C40.3783 67.3111 40.5895 67.7635 40.6196 68.1556C40.6196 68.3366 40.8308 68.2763 40.9514 68.216C41.977 67.7937 42.912 67.2809 43.6661 66.4967C43.7868 66.376 43.9074 66.2252 43.8471 66.014C43.6661 65.3504 43.4852 64.6868 43.274 63.9026Z" fill="#003B72"/>
<path d="M89.5449 79.6181C89.5449 78.5926 89.5449 77.5368 89.5449 76.5113C89.5449 75.7572 89.9672 75.3048 90.6006 75.3349C91.2039 75.3349 91.6262 75.7874 91.6262 76.4811C91.6564 78.5926 91.6262 80.7342 91.6262 82.8456C91.6262 83.5696 91.1738 84.0522 90.5705 84.0522C89.9672 84.0522 89.5751 83.5696 89.5449 82.8155C89.5449 81.7296 89.5449 80.6739 89.5449 79.6181Z" fill="#003B72"/>
<path d="M31.6914 80.372C31.6914 81.2165 31.6914 82.0309 31.6914 82.8755C31.6914 83.5693 31.2691 84.0217 30.6659 84.0519C30.0928 84.0519 29.6101 83.5994 29.6101 82.9057C29.58 81.2165 29.58 79.5274 29.6101 77.8684C29.6101 77.1746 30.0324 76.7222 30.6357 76.7222C31.2691 76.7222 31.6613 77.1746 31.6914 77.9287C31.7216 78.713 31.6914 79.5575 31.6914 80.372Z" fill="#003B72"/>
<path d="M71.8093 80.7339C71.8093 80.0401 71.8093 79.3464 71.8093 78.6526C71.8395 77.989 72.2015 77.5667 72.7746 77.5064C73.3778 77.4762 73.8605 77.8985 73.8906 78.5621C73.9208 80.01 73.9208 81.4578 73.8906 82.9057C73.8906 83.5391 73.408 83.9916 72.865 83.9916C72.2919 83.9916 71.8697 83.5391 71.8395 82.8453C71.8093 82.1817 71.8093 81.4578 71.8093 80.7339Z" fill="#003B72"/>
<path d="M49.4584 80.7641C49.4584 81.488 49.4885 82.1818 49.4584 82.9057C49.4282 83.5693 49.0361 83.9916 48.4931 84.0218C47.92 84.0519 47.4374 83.5995 47.4073 82.9359C47.3771 81.5182 47.3771 80.0704 47.4073 78.6527C47.4374 77.9589 47.8597 77.5366 48.463 77.5366C49.0663 77.5366 49.4584 77.9589 49.4584 78.6828C49.4584 79.3766 49.4584 80.0704 49.4584 80.7641Z" fill="#003B72"/>
<path d="M58.9287 41.4312C61.583 41.5216 64.5089 41.7026 67.1935 43.1203C67.8872 43.4823 68.5207 43.9347 69.0938 44.5078C69.516 44.9603 69.5462 45.5032 69.1842 45.9557C68.8223 46.378 68.219 46.4685 67.7666 46.0763C65.0519 43.6934 61.7037 43.6029 58.3857 43.5728C57.0887 43.5728 55.7615 43.6934 54.4645 43.8744C54.012 43.9347 53.8914 44.1157 53.9215 44.538C53.9517 45.1413 53.9517 45.7445 53.9215 46.3478C53.8914 47.0416 53.4992 47.4337 52.9261 47.4337C52.3229 47.4337 51.9006 47.0717 51.8704 46.378C51.8402 45.5636 51.8101 44.719 51.8704 43.9046C51.9307 42.7885 52.715 42.0344 53.8009 41.8836C55.3995 41.6121 57.0284 41.4915 58.9287 41.4312Z" fill="#003B72"/>
<path d="M81.7923 54.2502C83.6624 54.3708 85.5024 54.5518 87.282 55.2456C87.4027 55.3059 87.5535 55.3361 87.6741 55.3964C88.2171 55.698 88.4282 56.1806 88.2472 56.7236C88.0059 57.3268 87.5233 57.538 86.9502 57.3268C84.9594 56.5426 82.8781 56.4219 80.7968 56.3013C80.0126 56.2711 79.6205 55.8488 79.6205 55.2154C79.6506 54.5518 80.1031 54.1898 80.9175 54.22C81.189 54.22 81.4906 54.2502 81.7923 54.2502Z" fill="#003B72"/>
<mask id="mask0_2811_18453" style="mask-type:alpha" maskUnits="userSpaceOnUse" x="37" y="29" width="44" height="61">
<path d="M80.6965 83.2019V85.7994C69.1162 86.8817 45.2412 89.0462 42.384 89.0462C38.8126 89.0462 39.1372 86.7734 39.1372 86.1241C39.1372 85.6046 38.2714 80.2798 37.8385 77.6823L41.41 72.4874L43.3581 70.5393L46.6049 68.2666C47.0378 67.7254 47.9036 66.4483 47.9036 65.6691C47.9036 64.6951 48.2283 60.7989 47.9036 59.5002C47.579 58.2014 44.6568 47.4869 44.0074 43.9154C43.4879 41.0582 45.0897 33.4174 45.9555 29.9541H73.2288C74.6358 33.4174 77.4497 40.4738 77.4497 40.9933C77.4497 41.6426 73.2288 53.9806 73.2288 54.6299V64.0457L76.4756 68.9159L80.6965 73.1368V83.2019Z" fill="#D9D9D9"/>
</mask>
<g mask="url(#mask0_2811_18453)">
<path d="M25.1759 74.6403C25.7188 71.8351 28.1923 71.1715 30.364 70.0253C28.886 69.3315 27.6493 68.5171 26.7142 67.2804C26.3824 66.8581 26.2015 66.4057 26.4126 65.8627C27.1064 64.2037 27.1667 62.4543 27.2572 60.7048C27.3477 59.0156 27.2873 57.3265 27.6795 55.6675C28.524 51.9875 31.5706 49.122 35.0695 48.6997C39.3829 48.1869 43.2438 50.7508 44.571 54.9435C45.0235 56.3914 45.0838 57.8996 45.114 59.3776C45.1743 60.9762 45.2346 62.5447 45.5061 64.1133C45.5966 64.5959 45.6871 65.0785 45.8982 65.5008C46.23 66.1945 46.0792 66.7676 45.5966 67.3407C44.6615 68.487 43.4852 69.2712 42.1278 69.9046C42.6104 70.3269 42.9724 70.4476 43.5756 70.146C45.4156 69.241 47.4064 68.6981 49.3067 67.944C49.9703 67.6725 50.6037 67.5217 50.9657 66.7375C51.2673 66.0739 51.9913 65.5611 52.5342 65.0182C52.7755 64.7768 52.8962 64.5054 52.866 64.1434C52.866 64.0529 52.866 63.9624 52.866 63.8719C53.0771 62.1526 52.5945 60.7953 51.3277 59.4681C49.2464 57.2963 48.432 54.4609 48.432 51.4747C48.432 49.9666 48.1002 48.579 47.7684 47.1614C47.0444 43.9339 46.8333 40.646 48.3415 37.5392C50.0608 34.0704 52.9565 32.1098 56.8174 31.9891C62.0659 31.8383 67.3445 31.9288 72.5929 31.9288C73.4074 31.9288 73.8296 32.3511 73.8296 33.1655C73.8296 36.8756 73.8598 40.5857 73.8296 44.2958C73.8296 45.7738 73.528 47.2217 72.9247 48.6092C72.7136 49.0617 72.7438 49.5141 72.7438 49.9666C72.7739 52.0177 72.7136 54.0688 71.9595 56.0294C71.2356 57.8996 70.1799 59.4982 68.7018 60.8556C68.4304 61.0969 68.2494 61.3684 68.3097 61.7303C68.3097 61.7907 68.3097 61.8811 68.3097 61.9415C68.0383 63.7814 68.4605 65.3499 70.029 66.466C70.0894 66.4962 70.1497 66.5565 70.1799 66.6168C70.4513 67.6725 71.4166 67.763 72.231 68.0647C73.4074 68.4869 74.5837 68.8791 75.7299 69.3617C76.303 69.603 76.8158 69.6633 77.3889 69.422C77.6604 69.3014 77.962 69.241 78.2335 69.1506C79.5909 68.7584 79.6814 68.5774 79.5004 67.1899C79.4702 66.9486 79.3194 66.828 79.1686 66.7073C77.1175 64.988 76.1221 62.7559 76.1824 60.1015C76.2126 59.2268 76.0316 58.4425 75.6395 57.6583C73.7995 53.7973 76.6047 48.9712 80.8879 48.6695C84.417 48.4282 87.9462 48.6092 91.4753 48.579C92.1992 48.579 92.6517 48.941 92.6517 49.6046C92.6517 51.8065 92.8025 53.9783 92.5612 56.1802C92.5008 56.693 92.3802 57.2058 92.1087 57.6281C91.6261 58.4727 91.5356 59.3474 91.5658 60.2825C91.6261 62.9369 90.6911 65.1388 88.5796 66.7978C87.9462 67.2804 88.278 67.944 88.278 68.5171C88.278 68.9394 88.7304 68.9696 89.0622 69.0601C90.2688 69.422 91.5055 69.7538 92.712 70.1158C94.8234 70.7492 95.9998 72.3479 95.9998 74.5197C95.9998 77.2042 95.9998 79.8586 95.9998 82.5431C95.9998 83.4481 95.6077 83.9608 94.9441 83.9608C94.2805 83.9608 93.9185 83.4481 93.9185 82.513C93.9185 79.9491 93.9185 77.3852 93.9185 74.8213C93.9185 73.1925 93.3756 72.4685 91.8373 72.0161C90.5402 71.624 89.213 71.262 87.916 70.8699C87.6445 70.7794 87.4334 70.7794 87.2524 71.0207C87.2222 71.0509 87.1921 71.081 87.1619 71.1112C86.438 71.8653 85.4426 72.4685 85.0505 73.3734C84.6885 74.2482 84.9298 75.3642 84.9298 76.3898C84.9298 78.4108 84.9298 80.4619 84.9298 82.4828C84.9298 82.7543 84.9298 83.0258 84.8393 83.2972C84.6583 83.7497 84.2964 83.991 83.8138 83.9608C83.3311 83.9307 82.9993 83.629 82.9089 83.1464C82.8485 82.9051 82.8787 82.6336 82.8787 82.3923C82.8787 79.5871 82.8787 76.7518 82.8787 73.9465C82.8787 73.5544 82.7882 73.2528 82.4866 72.9813C81.9738 72.5289 81.4912 72.0161 81.0086 71.5335C80.1941 70.7191 80.1941 70.7191 79.0178 71.2017C80.4656 72.7099 80.5863 74.5498 80.5561 76.4803C80.5259 78.4409 80.5561 80.4015 80.5561 82.3622C80.5561 82.5733 80.5561 82.7845 80.5561 82.9956C80.4656 83.5989 80.0433 83.991 79.5004 83.991C78.9574 83.9608 78.5352 83.5687 78.505 82.9353C78.4748 81.7287 78.505 80.5222 78.505 79.3458C78.505 77.9281 78.505 76.5406 78.505 75.1229C78.505 73.4941 77.6906 72.3177 76.1522 71.7446C74.1011 70.9905 72.05 70.2364 69.9989 69.4823C69.6671 69.3617 69.4861 69.422 69.275 69.7237C68.4907 70.9302 67.7065 72.1066 66.892 73.283C65.8966 74.761 64.479 74.8816 63.2121 73.6449C62.7596 73.1925 62.3373 72.74 61.8547 72.2272C61.6436 72.559 61.7039 72.8305 61.7039 73.0718C61.7039 76.1183 61.7039 79.1648 61.7039 82.2114C61.7039 83.4481 61.3721 83.991 60.6482 83.9608C59.9243 83.9608 59.6226 83.4481 59.6226 82.2415C59.6226 79.195 59.6226 76.1485 59.6226 73.102C59.6226 72.8607 59.6226 72.5892 59.6226 72.2574C59.0194 72.6194 58.6272 73.1321 58.2049 73.5243C56.8174 74.8816 55.4299 74.761 54.344 73.1321C53.5598 71.9859 52.8057 70.8397 52.0516 69.6633C51.8404 69.3617 51.6595 69.3014 51.3277 69.422C49.2766 70.1761 47.2254 70.9 45.1743 71.6843C43.6058 72.2574 42.8216 73.4338 42.8216 75.1531C42.8216 77.5662 42.8216 79.9491 42.8216 82.3622C42.8216 82.6035 42.8215 82.8146 42.7914 83.0559C42.7009 83.629 42.3389 83.9307 41.8262 83.9608C41.3134 83.991 40.9514 83.6894 40.8308 83.1766C40.7704 82.9353 40.7704 82.6638 40.7704 82.4225C40.7704 80.0396 40.7704 77.6567 40.7704 75.3039C40.7704 74.3387 40.9212 73.4338 41.3435 72.559C41.434 72.3781 41.796 72.1066 41.3737 71.9558C41.0118 71.8049 40.7101 71.2922 40.2275 71.7446C39.8354 72.1367 39.4432 72.5289 38.9908 72.8607C37.3318 74.1577 35.1902 74.1275 33.5614 72.8607C33.4407 72.7702 33.3502 72.6797 33.2296 72.5892C32.8073 72.2574 32.5056 71.5636 31.9928 71.5938C31.4801 71.5938 30.9975 72.0161 30.5148 72.2574C29.9719 72.5289 29.3988 72.8305 28.8559 73.102C27.8001 73.6148 27.3477 74.4292 27.3477 75.6055C27.3778 77.898 27.3477 80.2206 27.3477 82.513C27.3477 83.0861 27.2873 83.629 26.6539 83.8703C25.9903 84.1117 25.6284 83.7195 25.2664 83.2671C25.1759 80.4619 25.1759 77.536 25.1759 74.6403ZM64.0265 34.1006C61.7341 34.1006 59.4718 34.0704 57.1794 34.1006C53.5296 34.191 50.4228 36.6645 49.6988 40.2237C49.2162 42.5765 49.186 44.9896 50.0306 47.2518C50.4831 48.5489 50.6037 49.7856 50.5736 51.1128C50.5736 52.8623 50.8752 54.5514 51.5991 56.1501C53.4391 60.1015 57.3302 62.3034 61.7944 61.9113C65.7157 61.5795 69.275 58.4727 70.3307 54.4911C70.753 52.8623 70.6625 51.2033 70.6926 49.5443C70.6926 49.0315 70.753 48.5489 70.9641 48.0663C71.5372 46.7994 71.7785 45.442 71.7785 44.0243C71.8087 40.9175 71.7785 37.8107 71.8087 34.6737C71.8087 34.191 71.688 34.0402 71.1753 34.0704C68.8225 34.1006 66.4094 34.1006 64.0265 34.1006ZM90.6609 53.1639C90.6609 52.5606 90.6307 51.9573 90.6609 51.3541C90.691 50.8413 90.5101 50.6905 89.9973 50.6905C87.3429 50.7206 84.6885 50.6905 82.0341 50.7206C81.5213 50.7206 81.0086 50.781 80.5259 50.9016C77.8414 51.5652 76.3031 54.7324 77.7207 57.1756C78.1732 57.9599 78.3542 58.7743 78.2938 59.6792C78.2637 60.5841 78.324 61.4589 78.5653 62.3336C79.2289 64.5355 81.1292 66.0739 83.5121 66.3453C85.5331 66.5867 87.735 65.3499 88.7907 63.4496C89.3337 62.4844 89.4845 61.4287 89.5147 60.3126C89.5448 59.5284 89.2734 58.6838 89.6655 57.9901C90.5704 56.512 90.7815 54.8832 90.6609 53.1639ZM43.0025 59.6189C43.0629 56.5422 42.5199 54.7626 41.1022 53.0131C38.6892 50.057 33.8328 50.0571 31.3594 52.9829C29.9719 54.6117 29.4591 56.512 29.4591 58.6235C29.4591 59.1966 29.2178 59.83 30.1227 59.9808C30.2735 60.011 30.3942 60.2222 30.4847 60.373C30.6958 60.7349 30.6657 61.1874 30.6958 61.5795C30.9673 63.9323 33.0486 66.2247 35.9443 66.4057C38.2669 66.5565 40.7101 64.988 41.5245 62.6956C41.7658 62.0018 41.7357 61.3985 41.2832 60.7651C39.6544 58.533 37.3318 57.6884 34.7076 57.4773C34.4361 57.4471 34.2853 57.5979 34.1345 57.7789C33.7122 58.2314 33.2899 58.6838 32.8073 59.1061C32.4755 59.4077 32.0532 59.4379 31.6611 59.2268C31.2689 59.0156 31.1181 58.6838 31.1483 58.2615C31.2086 57.5678 33.4105 55.3658 34.1043 55.396C36.1253 55.4262 38.0859 55.8786 39.8655 56.8438C41.0721 57.4471 42.0976 58.3219 43.0025 59.6189ZM66.1983 62.7257C65.9871 62.8162 65.8363 62.8464 65.7157 62.9067C63.6947 63.8418 61.5531 64.1736 59.321 63.9624C57.9938 63.8116 56.7571 63.4798 55.5506 62.9067C55.3997 62.8464 55.2188 62.5749 55.0378 62.8464C54.7663 63.2687 55.0981 64.626 55.5204 64.8975C57.0889 65.9532 58.6272 67.0089 60.1957 68.0948C60.5275 68.3361 60.7688 68.3361 61.1006 68.0948C62.3977 67.1899 63.6645 66.1945 65.0521 65.4404C66.1681 64.807 66.4999 64.0228 66.2888 62.8765C66.2284 62.8765 66.2284 62.8464 66.1983 62.7257ZM62.2468 69.8443C63.0613 70.6587 63.8154 71.3826 64.5694 72.1367C64.8711 72.4685 65.0219 72.378 65.233 72.0462C66.0173 70.8397 66.8317 69.6332 67.6461 68.4266C68.2494 67.4916 68.2494 67.5217 67.4651 66.7676C67.254 66.5867 67.1333 66.5263 66.892 66.7073C65.3537 67.7329 63.8455 68.7584 62.2468 69.8443ZM56.365 72.4384C56.4555 72.3479 56.546 72.3177 56.6063 72.2574C57.3302 71.5335 58.024 70.8095 58.7479 70.1158C59.0194 69.8443 58.8685 69.7538 58.6574 69.603C57.2699 68.6679 55.8824 67.7027 54.4948 66.7676C54.2234 66.5565 53.9821 66.5565 53.8312 66.8581C53.6503 67.2201 52.8962 67.3106 53.3185 67.944C54.2535 69.3617 55.2188 70.7794 56.1538 72.1971C56.2142 72.2574 56.2745 72.3177 56.365 72.4384ZM36.2459 71.8049C37.3318 71.8351 37.9652 71.0508 38.659 70.3571C38.7495 70.2666 38.6892 70.1459 38.659 70.0253C38.5082 69.5728 38.4479 69.1204 38.5082 68.6679C38.5383 68.2155 38.3574 68.1853 37.9954 68.2758C37 68.5473 36.0046 68.5473 34.979 68.3965C33.9836 68.2456 33.9836 68.2456 33.9233 69.2712C33.9233 69.4823 33.863 69.7237 33.8027 69.9348C33.7725 70.0555 33.682 70.2063 33.8027 70.3269C34.4663 71.0508 35.0997 71.8049 36.2459 71.8049ZM86.2268 68.7584C86.3475 68.1552 86.0157 68.1853 85.5633 68.2758C84.4774 68.5473 83.3613 68.5774 82.3056 68.2758C81.7928 68.125 81.6118 68.2155 81.6118 68.7584C81.6118 69.0601 81.6722 69.2712 81.8833 69.4823C82.4564 70.0555 83.0295 70.5984 83.6026 71.2017C83.8439 71.443 83.9947 71.5033 84.2662 71.2318C84.8393 70.6286 85.4124 70.0555 86.0157 69.4823C86.1967 69.2712 86.2872 69.0601 86.2268 68.7584ZM29.1273 63.8719C28.9463 64.626 28.7955 65.2595 28.6145 65.8627C28.524 66.1945 28.5844 66.3755 28.8257 66.5867C29.5798 67.3106 30.4545 67.8234 31.4499 68.2155C31.5706 68.2758 31.8119 68.3965 31.8119 68.1552C31.8119 67.763 32.023 67.3106 31.6309 67.0089C30.5752 66.1644 29.7607 65.1388 29.1273 63.8719ZM43.274 63.9021C42.6406 65.1991 41.8563 66.1945 40.8006 67.0089C40.3783 67.3106 40.5895 67.763 40.6196 68.1552C40.6196 68.3361 40.8308 68.2758 40.9514 68.2155C41.977 67.7932 42.912 67.2804 43.6661 66.4962C43.7868 66.3755 43.9074 66.2247 43.8471 66.0135C43.6661 65.3499 43.4852 64.6864 43.274 63.9021Z" fill="#003B72"/>
<path d="M71.8093 80.7334C71.8093 80.0396 71.8093 79.3459 71.8093 78.6521C71.8395 77.9885 72.2015 77.5662 72.7746 77.5059C73.3778 77.4757 73.8605 77.898 73.8906 78.5616C73.9208 80.0095 73.9208 81.4573 73.8906 82.9052C73.8906 83.5386 73.408 83.9911 72.865 83.9911C72.2919 83.9911 71.8697 83.5386 71.8395 82.8448C71.8093 82.1812 71.8093 81.4573 71.8093 80.7334Z" fill="#003B72"/>
<path d="M49.4584 80.7636C49.4584 81.4875 49.4885 82.1813 49.4584 82.9052C49.4282 83.5688 49.0361 83.9911 48.4931 84.0213C47.92 84.0515 47.4374 83.599 47.4073 82.9354C47.3771 81.5177 47.3771 80.0699 47.4073 78.6522C47.4374 77.9584 47.8597 77.5361 48.463 77.5361C49.0663 77.5361 49.4584 77.9584 49.4584 78.6823C49.4584 79.3761 49.4584 80.0699 49.4584 80.7636Z" fill="#003B72"/>
<path d="M58.9287 41.4307C61.583 41.5212 64.5089 41.7021 67.1935 43.1198C67.8872 43.4818 68.5207 43.9342 69.0938 44.5073C69.516 44.9598 69.5462 45.5027 69.1842 45.9552C68.8223 46.3775 68.219 46.468 67.7666 46.0758C65.0519 43.6929 61.7037 43.6024 58.3857 43.5723C57.0887 43.5723 55.7615 43.6929 54.4645 43.8739C54.012 43.9342 53.8914 44.1152 53.9215 44.5375C53.9517 45.1408 53.9517 45.744 53.9215 46.3473C53.8914 47.0411 53.4992 47.4332 52.9261 47.4332C52.3229 47.4332 51.9006 47.0712 51.8704 46.3775C51.8402 45.5631 51.8101 44.7185 51.8704 43.9041C51.9307 42.788 52.715 42.0339 53.8009 41.8831C55.3995 41.6116 57.0284 41.491 58.9287 41.4307Z" fill="#003B72"/>
<path d="M81.7923 54.2497C83.6624 54.3703 85.5024 54.5513 87.282 55.2451C87.4027 55.3054 87.5535 55.3356 87.6741 55.3959C88.2171 55.6975 88.4282 56.1801 88.2472 56.7231C88.0059 57.3264 87.5233 57.5375 86.9502 57.3264C84.9594 56.5421 82.8781 56.4215 80.7968 56.3008C80.0126 56.2706 79.6205 55.8483 79.6205 55.2149C79.6506 54.5513 80.1031 54.1894 80.9175 54.2195C81.189 54.2195 81.4906 54.2497 81.7923 54.2497Z" fill="#003B72"/>
</g>
<circle opacity="0.2" cx="60" cy="60" r="59" stroke="#003B72" stroke-width="2"/>
</svg>
